HIERARCHY
ROOT Hips
{
	OFFSET -0.001795 -0.223333 0.028219
	CHANNELS 6 Xposition Yposition Zposition Zrotation Yrotation Xrotation 
	JOINT LeftUpLeg
	{
		OFFSET 0.069520 -0.091406 -0.006815
		CHANNELS 3 Zrotation Yrotation Xrotation
		JOINT LeftLeg
		{
			OFFSET 0.034277 -0.375199 -0.004496
			CHANNELS 3 Zrotation Yrotation Xrotation
			JOINT LeftFoot
			{
				OFFSET -0.013596 -0.397961 -0.043693
				CHANNELS 3 Zrotation Yrotation Xrotation
				JOINT LeftToe
				{
					OFFSET 0.026358 -0.055791 0.119288
					CHANNELS 3 Zrotation Yrotation Xrotation
					End Site
					{
						OFFSET 0.000000 0.000000 0.000000
					}
				}
			}
		}
	}
	JOINT RightUpLeg
	{
		OFFSET -0.067670 -0.090522 -0.004320
		CHANNELS 3 Zrotation Yrotation Xrotation
		JOINT RightLeg
		{
			OFFSET -0.038290 -0.382569 -0.008850
			CHANNELS 3 Zrotation Yrotation Xrotation
			JOINT RightFoot
			{
				OFFSET 0.015774 -0.398415 -0.042312
				CHANNELS 3 Zrotation Yrotation Xrotation
				JOINT RightToe
				{
					OFFSET -0.025372 -0.048144 0.123348
					CHANNELS 3 Zrotation Yrotation Xrotation
					End Site
					{
						OFFSET 0.000000 0.000000 0.000000
					}
				}
			}
		}
	}
	JOINT Spine
	{
		OFFSET -0.002533 0.108963 -0.026696
		CHANNELS 3 Zrotation Yrotation Xrotation
		JOINT Spine1
		{
			OFFSET 0.005487 0.135180 0.001092
			CHANNELS 3 Zrotation Yrotation Xrotation
			JOINT Spine2
			{
				OFFSET 0.001457 0.052922 0.025425
				CHANNELS 3 Zrotation Yrotation Xrotation
				JOINT Neck
				{
					OFFSET -0.002778 0.213870 -0.042857
					CHANNELS 3 Zrotation Yrotation Xrotation
					JOINT Head
					{
						OFFSET 0.005152 0.064970 0.051349
						CHANNELS 3 Zrotation Yrotation Xrotation
						End Site
						{
							OFFSET 0.000000 0.000000 0.000000
						}
					}
				}
				JOINT LeftShoulder
				{
					OFFSET 0.078845 0.121749 -0.034090
					CHANNELS 3 Zrotation Yrotation Xrotation
					JOINT LeftArm
					{
						OFFSET 0.090977 0.030469 -0.008868
						CHANNELS 3 Zrotation Yrotation Xrotation
						JOINT LeftForeArm
						{
							OFFSET 0.259612 -0.012772 -0.027456
							CHANNELS 3 Zrotation Yrotation Xrotation
							JOINT LeftHand
							{
								OFFSET 0.249234 0.008986 -0.001171
								CHANNELS 3 Zrotation Yrotation Xrotation
								End Site
								{
									OFFSET 0.000000 0.000000 0.000000
								}
							}
						}
					}
				}
				JOINT RightShoulder
				{
					OFFSET -0.081759 0.118833 -0.038615
					CHANNELS 3 Zrotation Yrotation Xrotation
					JOINT RightArm
					{
						OFFSET -0.096012 0.032551 -0.009143
						CHANNELS 3 Zrotation Yrotation Xrotation
						JOINT RightForeArm
						{
							OFFSET -0.253742 -0.013329 -0.021401
							CHANNELS 3 Zrotation Yrotation Xrotation
							JOINT RightHand
							{
								OFFSET -0.255298 0.007772 -0.005559
								CHANNELS 3 Zrotation Yrotation Xrotation
								End Site
								{
									OFFSET 0.000000 0.000000 0.000000
								}
							}
						}
					}
				}
			}
		}
	}
}
MOTION
Frames: 17
Frame Time: 0.050000
0.127475 0.828948 0.186524 -34.825469 -80.792510 44.146709 13.262876 17.006295 -31.455053 11.096871 21.464567 64.759971 4.822617 10.413363 -13.545493 0.000000 0.000000 0.000000 -36.790006 15.136791 -55.359574 34.166961 2.236260 32.979566 -6.518983 -25.459263 18.199064 0.000000 0.000000 0.000000 7.909985 7.602093 38.806940 17.187554 0.368641 -27.163383 -15.971779 -29.112812 30.856746 0.739223 -6.974488 -28.936145 0.000000 0.000000 0.000000 -26.737891 -9.211345 29.033390 -21.395898 -49.997660 0.802669 16.821494 -56.582279 -5.203814 0.000000 0.000000 0.000000 17.997069 17.364587 -19.052369 41.233950 -7.596661 -1.669273 -178.377173 63.376557 163.117274 0.000000 0.000000 0.000000 
0.125382 0.840919 0.190717 -41.997749 -82.151796 50.728591 12.933442 15.534088 -28.985154 8.688723 22.972858 60.590336 5.615242 13.318643 -13.096653 0.000000 0.000000 0.000000 -33.010559 15.283900 -53.019874 29.100725 3.457348 33.133079 -3.889859 -21.260774 17.284482 0.000000 0.000000 0.000000 7.080585 7.282994 37.008539 17.037657 0.441903 -26.550624 -16.800555 -29.417097 32.349551 0.231761 -7.001914 -28.771921 0.000000 0.000000 0.000000 -26.294426 -9.500383 30.040740 -19.741763 -51.366099 0.632388 22.898345 -56.597483 -8.548823 0.000000 0.000000 0.000000 18.178860 16.623083 -21.405883 41.528600 -13.999247 -3.809517 175.003606 67.204615 154.020717 0.000000 0.000000 0.000000 
0.122687 0.851480 0.194036 -48.248655 -82.995594 56.339523 12.768976 14.051553 -26.497700 6.220430 23.846868 56.488887 6.331333 15.541002 -11.760203 0.000000 0.000000 0.000000 -29.646113 15.030996 -50.574165 24.893361 4.278811 32.753882 -1.869435 -18.173453 17.270582 0.000000 0.000000 0.000000 6.283264 6.756133 35.087961 16.360381 0.192041 -25.448240 -17.101670 -29.731862 32.960121 -0.926457 -6.629977 -28.461041 0.000000 0.000000 0.000000 -25.654806 -8.572235 29.953652 -20.315157 -52.535248 1.295269 25.614098 -59.723580 -9.965724 0.000000 0.000000 0.000000 16.537815 14.927461 -22.059634 43.101785 -18.992970 -6.685701 166.804566 72.020249 142.580056 0.000000 0.000000 0.000000 
0.119939 0.860715 0.197173 -56.417029 -84.037415 63.860622 12.093625 12.415187 -24.177400 3.755287 24.287586 52.021274 7.324749 18.531116 -10.590727 0.000000 0.000000 0.000000 -26.571763 14.526385 -47.775487 20.297051 4.979316 31.974360 0.251487 -14.355557 16.551716 0.000000 0.000000 0.000000 5.926801 6.294343 33.453115 15.036495 -0.008610 -24.797037 -17.128627 -29.379358 34.166808 -1.419543 -6.546793 -27.941357 0.000000 0.000000 0.000000 -24.764916 -8.536353 30.260491 -20.818607 -54.248054 2.180933 29.170701 -62.373994 -12.031903 0.000000 0.000000 0.000000 15.276468 12.772307 -23.234937 43.103733 -23.312565 -9.000387 151.461727 76.476733 125.482429 0.000000 0.000000 0.000000 
0.117924 0.867972 0.200713 -57.979889 -84.543968 64.913054 11.359774 10.894099 -22.347751 1.831173 23.934983 48.274105 7.772733 20.274916 -10.064345 0.000000 0.000000 0.000000 -24.583272 13.688658 -45.073167 16.964910 5.208976 30.771519 1.932865 -11.137005 16.042496 0.000000 0.000000 0.000000 5.630953 5.695304 31.814667 14.484431 -0.197472 -23.983409 -17.393883 -28.859203 34.489890 -1.963374 -6.417609 -27.829168 0.000000 0.000000 0.000000 -24.327621 -8.293121 30.200364 -22.581000 -55.756666 3.476946 29.456629 -66.131830 -12.280779 0.000000 0.000000 0.000000 13.544979 10.838287 -22.794264 43.303644 -26.152999 -11.186201 132.210671 80.398804 106.144113 0.000000 0.000000 0.000000 
0.117168 0.875063 0.204681 -66.156377 -85.586316 73.231260 9.710711 9.690611 -21.837971 1.425981 23.245574 45.869080 8.210766 21.811005 -9.416871 0.000000 0.000000 0.000000 -23.798841 13.217599 -43.205231 14.281089 5.192919 29.041826 2.757554 -8.662564 14.945989 0.000000 0.000000 0.000000 5.632825 5.374627 30.832643 13.839666 -0.160285 -23.987131 -17.709364 -28.160865 35.037549 -1.117417 -6.755132 -28.152797 0.000000 0.000000 0.000000 -24.409347 -7.971428 30.637984 -22.060921 -56.474225 3.368403 28.782280 -68.553942 -12.207365 0.000000 0.000000 0.000000 12.439379 9.291203 -23.074854 42.880967 -28.125324 -12.462193 110.547373 81.314902 84.220429 0.000000 0.000000 0.000000 
0.117913 0.879765 0.208069 -79.993143 -86.486847 87.388966 8.390299 9.000665 -21.818463 1.134112 22.643095 44.060353 8.660742 22.990338 -8.752022 0.000000 0.000000 0.000000 -24.300018 13.048590 -42.230405 12.838407 4.869463 26.993483 3.262415 -7.409564 14.757353 0.000000 0.000000 0.000000 5.655974 5.086931 29.891483 13.257330 -0.237072 -23.491021 -17.879235 -28.226345 34.961738 -1.401482 -6.701697 -28.853366 0.000000 0.000000 0.000000 -24.887231 -7.152153 31.189160 -21.056793 -56.833763 2.783595 30.198835 -69.743107 -13.485237 0.000000 0.000000 0.000000 10.988961 8.083395 -22.650449 42.030574 -28.828787 -13.170485 93.822216 80.169284 66.097850 0.000000 0.000000 0.000000 
0.119777 0.883236 0.209804 -95.008972 -86.975417 102.731104 7.293026 8.905403 -22.695525 2.076136 21.679876 43.598154 8.524121 22.583681 -8.399209 0.000000 0.000000 0.000000 -23.732858 12.899501 -41.412983 11.332409 4.851770 26.210079 2.538295 -6.793331 13.073085 0.000000 0.000000 0.000000 6.295845 4.901559 29.628491 12.813468 -0.171789 -23.697602 -18.069529 -28.221245 34.637084 -1.203506 -6.740134 -29.009669 0.000000 0.000000 0.000000 -25.660638 -6.148691 31.721946 -18.804794 -57.287127 1.413132 29.566760 -70.783201 -13.395036 0.000000 0.000000 0.000000 10.527145 7.501401 -23.067741 40.866002 -30.734667 -13.667525 98.922811 78.012273 68.934773 0.000000 0.000000 0.000000 
0.122355 0.884368 0.209340 -108.193920 -87.081603 116.227493 6.932760 9.285816 -23.587413 2.869249 21.275036 43.939792 8.172442 21.414401 -8.267153 0.000000 0.000000 0.000000 -24.642849 13.040821 -41.444378 12.238886 4.680018 25.505091 1.316582 -7.612639 12.038757 0.000000 0.000000 0.000000 6.164394 4.863251 29.371671 13.329651 -0.069394 -23.458613 -17.981568 -28.502660 34.700945 -1.697781 -6.589006 -29.060787 0.000000 0.000000 0.000000 -25.943952 -5.485509 31.860315 -17.478243 -56.680842 0.582448 34.615097 -70.677802 -17.042407 0.000000 0.000000 0.000000 10.062145 6.969207 -23.086886 40.181648 -31.745338 -14.045336 106.437973 75.390663 73.667126 0.000000 0.000000 0.000000 
0.125006 0.885268 0.206443 -120.804871 -86.848446 129.473221 6.577697 10.058401 -25.125113 3.615573 20.810465 44.334693 7.843614 20.387767 -8.321164 0.000000 0.000000 0.000000 -25.950230 13.596935 -42.565445 13.969567 4.703085 25.654499 -0.158737 -9.115267 11.069586 0.000000 0.000000 0.000000 6.177292 4.897538 29.320006 13.446028 -0.191706 -22.546699 -16.718824 -28.207636 33.412370 -2.570416 -5.983546 -27.613168 0.000000 0.000000 0.000000 -25.197334 -5.526092 31.114895 -17.245335 -55.772300 0.741722 39.641359 -69.985306 -20.231747 0.000000 0.000000 0.000000 9.823749 6.697820 -22.461668 40.483048 -32.771596 -14.841178 117.261738 72.767134 82.123990 0.000000 0.000000 0.000000 
0.126880 0.884774 0.200548 -124.774067 -87.230049 133.780607 6.304497 10.684632 -26.501940 4.943237 20.188367 45.459887 7.205765 19.008225 -8.946186 0.000000 0.000000 0.000000 -27.566548 14.076485 -43.929578 16.020051 4.763441 26.492163 -2.294349 -12.688087 10.865955 0.000000 0.000000 0.000000 6.218711 4.802183 29.114387 14.058143 -0.176513 -22.036705 -16.229146 -28.255204 33.085768 -3.874444 -5.542880 -27.616114 0.000000 0.000000 0.000000 -23.325979 -5.770233 29.518690 -20.148864 -55.104787 2.796839 46.029047 -69.047684 -23.410878 0.000000 0.000000 0.000000 9.767445 6.322962 -22.302095 40.507332 -32.746883 -14.908589 125.588019 70.275585 88.777297 0.000000 0.000000 0.000000 
0.126684 0.884665 0.191558 -122.702381 -87.556183 131.660336 6.576056 10.977770 -26.774683 4.771880 19.823330 45.103426 7.075981 18.252063 -8.340539 0.000000 0.000000 0.000000 -27.368546 14.396706 -45.095309 16.491107 5.051532 28.199244 -2.841732 -13.976979 10.842879 0.000000 0.000000 0.000000 6.531805 4.826488 29.377161 14.514483 -0.193007 -21.768900 -15.853165 -28.157850 32.534342 -5.259912 -4.847890 -26.627187 0.000000 0.000000 0.000000 -22.736293 -6.431249 29.060759 -20.603098 -54.228687 3.101494 48.893534 -67.512315 -24.785825 0.000000 0.000000 0.000000 10.196852 7.371051 -21.864645 40.851177 -33.150515 -14.950241 135.527036 67.894475 98.228159 0.000000 0.000000 0.000000 
0.123132 0.881776 0.179075 -58.313684 -88.529423 67.615516 6.070604 10.862106 -27.932192 4.866816 18.605448 44.897224 6.962598 17.994757 -8.575636 0.000000 0.000000 0.000000 -28.378435 14.318106 -45.955538 17.461541 5.043803 29.981902 -3.682511 -15.744104 10.607436 0.000000 0.000000 0.000000 6.873988 4.514760 29.297740 15.237967 -0.387654 -21.196328 -15.288730 -28.239732 31.958289 -6.814623 -4.181200 -26.750233 0.000000 0.000000 0.000000 -21.500627 -7.817011 28.083755 -22.308427 -53.792984 4.307711 52.417558 -67.390090 -26.702639 0.000000 0.000000 0.000000 9.705325 7.602565 -20.092403 44.259718 -31.249274 -15.867579 142.039792 66.075962 103.366920 0.000000 0.000000 0.000000 
0.115766 0.879728 0.163169 -16.033919 -87.529830 24.316597 7.114826 10.314002 -26.401197 3.296362 18.110848 42.941806 6.413156 17.666774 -9.493491 0.000000 0.000000 0.000000 -26.641492 13.768247 -45.213808 17.714837 5.603335 33.052290 -3.513852 -14.834337 9.366142 0.000000 0.000000 0.000000 7.208078 4.782469 30.410205 16.321988 -0.400680 -21.425920 -15.215827 -28.204523 31.361440 -8.335818 -3.484720 -26.994024 0.000000 0.000000 0.000000 -21.178778 -9.287222 27.661530 -23.314366 -52.969254 4.690982 54.068919 -67.878590 -28.207055 0.000000 0.000000 0.000000 11.215211 9.396625 -19.645772 44.910162 -30.404026 -15.034378 147.414760 64.697454 109.606899 0.000000 0.000000 0.000000 
0.105325 0.877108 0.144377 0.897470 -85.311355 6.907716 7.553064 9.670584 -25.559533 2.805012 16.814341 41.516185 5.667141 16.887963 -10.726783 0.000000 0.000000 0.000000 -25.588810 13.247167 -44.892639 18.846593 6.131194 37.047331 -4.181392 -16.231821 8.847725 0.000000 0.000000 0.000000 7.061627 4.770779 30.822623 17.354541 -0.531180 -21.389329 -14.314942 -27.938982 30.740554 -9.646687 -2.733880 -27.542783 0.000000 0.000000 0.000000 -21.682129 -10.160692 27.555729 -23.691054 -52.800449 4.596287 54.114142 -70.118957 -29.466523 0.000000 0.000000 0.000000 10.671796 10.076168 -17.372318 48.207966 -26.663722 -14.987352 150.325988 64.400294 111.114419 0.000000 0.000000 0.000000 
0.092994 0.878574 0.123894 4.933523 -82.852030 1.850553 8.822091 8.609981 -22.739581 0.828953 15.822633 38.363880 5.651319 17.205170 -10.265543 0.000000 0.000000 0.000000 -22.955533 12.404098 -43.465414 18.340337 6.898406 40.222796 -3.810430 -14.863629 7.590030 0.000000 0.000000 0.000000 7.880470 4.910107 32.051052 17.220519 -0.585275 -22.619417 -13.570692 -28.041469 30.722130 -10.918150 -1.992187 -27.871419 0.000000 0.000000 0.000000 -22.475984 -11.277793 28.107988 -23.885302 -52.739329 4.341492 55.759662 -71.615490 -31.905552 0.000000 0.000000 0.000000 10.917557 11.754763 -15.864739 49.563149 -23.968623 -14.162245 151.772346 66.256903 113.564156 0.000000 0.000000 0.000000 
0.079641 0.882055 0.102520 8.245910 -80.141369 -1.560918 9.299868 7.815958 -21.322007 -0.813594 14.228234 35.095340 6.151049 17.840388 -8.829262 0.000000 0.000000 0.000000 -20.957083 11.657897 -42.351326 17.422014 7.321355 41.863026 -3.800532 -14.289573 6.544359 0.000000 0.000000 0.000000 7.659581 4.512096 31.540057 17.045407 -0.797124 -22.793797 -12.398012 -26.908883 30.331571 -11.654307 -1.524139 -28.730769 0.000000 0.000000 0.000000 -23.859250 -11.924235 28.694625 -23.846417 -53.420287 3.936550 54.586016 -73.903258 -32.512481 0.000000 0.000000 0.000000 10.469271 11.915026 -14.060602 51.141032 -20.122172 -13.351201 151.586875 67.971318 113.400360 0.000000 0.000000 0.000000 
